<mxfile host="app.diagrams.net" modified="2020-07-24T02:56:41.858Z" agent="5.0 (Windows NT 6.3; Win64; x64) AppleWebKit/537.36 (KHTML, like Gecko) Chrome/84.0.4147.89 Safari/537.36" etag="OpU-yAtIpHedX0UfQ-yZ" version="13.5.1" type="github">
  <diagram id="0YfM54YLL3d5J6dc9Wcw" name="Page-1">
    <mxGraphModel dx="782" dy="689" grid="1" gridSize="10" guides="1" tooltips="1" connect="1" arrows="1" fold="1" page="1" pageScale="1" pageWidth="827" pageHeight="1169" math="0" shadow="0">
      <root>
        <mxCell id="0" />
        <mxCell id="1" parent="0" />
        <mxCell id="umgGRX6cQPKKGzuGE6wV-17" style="edgeStyle=orthogonalEdgeStyle;rounded=0;orthogonalLoop=1;jettySize=auto;html=1;exitX=0.25;exitY=1;exitDx=0;exitDy=0;entryX=0.5;entryY=0;entryDx=0;entryDy=0;" parent="1" source="umgGRX6cQPKKGzuGE6wV-1" target="umgGRX6cQPKKGzuGE6wV-18" edge="1">
          <mxGeometry relative="1" as="geometry">
            <mxPoint x="210" y="742" as="targetPoint" />
          </mxGeometry>
        </mxCell>
        <mxCell id="umgGRX6cQPKKGzuGE6wV-28" style="edgeStyle=orthogonalEdgeStyle;rounded=0;orthogonalLoop=1;jettySize=auto;html=1;exitX=0.75;exitY=1;exitDx=0;exitDy=0;entryX=0.5;entryY=0;entryDx=0;entryDy=0;" parent="1" source="umgGRX6cQPKKGzuGE6wV-1" target="umgGRX6cQPKKGzuGE6wV-24" edge="1">
          <mxGeometry relative="1" as="geometry" />
        </mxCell>
        <mxCell id="umgGRX6cQPKKGzuGE6wV-1" value="" style="shape=image;html=1;verticalAlign=top;verticalLabelPosition=bottom;labelBackgroundColor=#ffffff;imageAspect=0;aspect=fixed;image=https://cdn2.iconfinder.com/data/icons/amazon-aws-stencils/100/Compute__Networking_copy_Elastic_Load_Balancing-128.png" parent="1" vertex="1">
          <mxGeometry x="250" y="522" width="128" height="128" as="geometry" />
        </mxCell>
        <mxCell id="umgGRX6cQPKKGzuGE6wV-4" value="" style="aspect=fixed;perimeter=ellipsePerimeter;html=1;align=center;shadow=0;dashed=0;spacingTop=3;image;image=img/lib/active_directory/database_server.svg;" parent="1" vertex="1">
          <mxGeometry x="159.99999999999997" y="910" width="49.2" height="60" as="geometry" />
        </mxCell>
        <mxCell id="umgGRX6cQPKKGzuGE6wV-12" style="edgeStyle=orthogonalEdgeStyle;rounded=0;orthogonalLoop=1;jettySize=auto;html=1;exitX=0.5;exitY=1;exitDx=0;exitDy=0;entryX=0.25;entryY=0;entryDx=0;entryDy=0;" parent="1" source="umgGRX6cQPKKGzuGE6wV-33" target="umgGRX6cQPKKGzuGE6wV-1" edge="1">
          <mxGeometry relative="1" as="geometry">
            <mxPoint x="74" y="402" as="sourcePoint" />
          </mxGeometry>
        </mxCell>
        <mxCell id="umgGRX6cQPKKGzuGE6wV-15" value="&lt;span style=&quot;background-color: rgb(255 , 255 , 255)&quot;&gt;Citrix http://efast-esb:8082&lt;/span&gt;" style="text;html=1;resizable=0;autosize=1;align=center;verticalAlign=middle;points=[];fillColor=none;strokeColor=none;rounded=0;" parent="1" vertex="1">
          <mxGeometry x="234" y="522" width="160" height="20" as="geometry" />
        </mxCell>
        <mxCell id="umgGRX6cQPKKGzuGE6wV-16" value="&lt;span style=&quot;background-color: rgb(255 , 255 , 255)&quot;&gt;10.0.50.37:8082&lt;/span&gt;" style="text;html=1;resizable=0;autosize=1;align=center;verticalAlign=middle;points=[];fillColor=none;strokeColor=none;rounded=0;" parent="1" vertex="1">
          <mxGeometry x="191.2" y="622" width="100" height="20" as="geometry" />
        </mxCell>
        <mxCell id="umgGRX6cQPKKGzuGE6wV-18" value="" style="rounded=0;whiteSpace=wrap;html=1;" parent="1" vertex="1">
          <mxGeometry x="50" y="727" width="170" height="120" as="geometry" />
        </mxCell>
        <mxCell id="umgGRX6cQPKKGzuGE6wV-19" value="10.0.50.35" style="aspect=fixed;perimeter=ellipsePerimeter;html=1;align=center;shadow=0;dashed=0;spacingTop=3;image;image=img/lib/active_directory/generic_server.svg;" parent="1" vertex="1">
          <mxGeometry x="59.999999999999986" y="747" width="39.2" height="70" as="geometry" />
        </mxCell>
        <mxCell id="umgGRX6cQPKKGzuGE6wV-20" value="10.0.50.36" style="aspect=fixed;perimeter=ellipsePerimeter;html=1;align=center;shadow=0;dashed=0;spacingTop=3;image;image=img/lib/active_directory/generic_server.svg;" parent="1" vertex="1">
          <mxGeometry x="160" y="747" width="39.2" height="70" as="geometry" />
        </mxCell>
        <mxCell id="umgGRX6cQPKKGzuGE6wV-21" value="&lt;span style=&quot;background-color: rgb(255 , 255 , 255)&quot;&gt;efast-esb DC&lt;/span&gt;" style="text;html=1;resizable=0;autosize=1;align=center;verticalAlign=middle;points=[];fillColor=none;strokeColor=none;rounded=0;" parent="1" vertex="1">
          <mxGeometry x="134.60000000000002" y="727" width="90" height="20" as="geometry" />
        </mxCell>
        <mxCell id="umgGRX6cQPKKGzuGE6wV-23" value="&lt;span style=&quot;background-color: rgb(255 , 255 , 255)&quot;&gt;10.4.50.37:8082&lt;/span&gt;" style="text;html=1;resizable=0;autosize=1;align=center;verticalAlign=middle;points=[];fillColor=none;strokeColor=none;rounded=0;" parent="1" vertex="1">
          <mxGeometry x="330" y="622" width="100" height="20" as="geometry" />
        </mxCell>
        <mxCell id="umgGRX6cQPKKGzuGE6wV-24" value="" style="rounded=0;whiteSpace=wrap;html=1;" parent="1" vertex="1">
          <mxGeometry x="394" y="728" width="170" height="120" as="geometry" />
        </mxCell>
        <mxCell id="umgGRX6cQPKKGzuGE6wV-25" value="10.4.50.35" style="aspect=fixed;perimeter=ellipsePerimeter;html=1;align=center;shadow=0;dashed=0;spacingTop=3;image;image=img/lib/active_directory/generic_server.svg;" parent="1" vertex="1">
          <mxGeometry x="404" y="748" width="39.2" height="70" as="geometry" />
        </mxCell>
        <mxCell id="umgGRX6cQPKKGzuGE6wV-26" value="10.4.50.36" style="aspect=fixed;perimeter=ellipsePerimeter;html=1;align=center;shadow=0;dashed=0;spacingTop=3;image;image=img/lib/active_directory/generic_server.svg;" parent="1" vertex="1">
          <mxGeometry x="504" y="748" width="39.2" height="70" as="geometry" />
        </mxCell>
        <mxCell id="umgGRX6cQPKKGzuGE6wV-27" value="&lt;span style=&quot;background-color: rgb(255 , 255 , 255)&quot;&gt;efast-esb DR&lt;/span&gt;" style="text;html=1;resizable=0;autosize=1;align=center;verticalAlign=middle;points=[];fillColor=none;strokeColor=none;rounded=0;" parent="1" vertex="1">
          <mxGeometry x="478.6" y="728" width="90" height="20" as="geometry" />
        </mxCell>
        <mxCell id="A9Hz1d1B_xaYPRxxfRa6-11" style="edgeStyle=orthogonalEdgeStyle;rounded=0;orthogonalLoop=1;jettySize=auto;html=1;exitX=0.5;exitY=0;exitDx=0;exitDy=0;" edge="1" parent="1" source="umgGRX6cQPKKGzuGE6wV-33">
          <mxGeometry relative="1" as="geometry">
            <mxPoint x="300" y="270" as="targetPoint" />
          </mxGeometry>
        </mxCell>
        <mxCell id="umgGRX6cQPKKGzuGE6wV-33" value="" style="rounded=0;whiteSpace=wrap;html=1;" parent="1" vertex="1">
          <mxGeometry x="34.4" y="322" width="210" height="140" as="geometry" />
        </mxCell>
        <mxCell id="umgGRX6cQPKKGzuGE6wV-35" value="10.3.243.48" style="aspect=fixed;perimeter=ellipsePerimeter;html=1;align=center;shadow=0;dashed=0;spacingTop=3;image;image=img/lib/active_directory/web_server.svg;" parent="1" vertex="1">
          <mxGeometry x="54.4" y="362" width="48" height="60" as="geometry" />
        </mxCell>
        <mxCell id="umgGRX6cQPKKGzuGE6wV-36" value="10.3.243.49" style="aspect=fixed;perimeter=ellipsePerimeter;html=1;align=center;shadow=0;dashed=0;spacingTop=3;image;image=img/lib/active_directory/web_server.svg;" parent="1" vertex="1">
          <mxGeometry x="165.6" y="362" width="48" height="60" as="geometry" />
        </mxCell>
        <mxCell id="umgGRX6cQPKKGzuGE6wV-37" value="&lt;span style=&quot;background-color: rgb(255 , 255 , 255)&quot;&gt;Efast web DC&lt;/span&gt;" style="text;html=1;resizable=0;autosize=1;align=center;verticalAlign=middle;points=[];fillColor=none;strokeColor=none;rounded=0;" parent="1" vertex="1">
          <mxGeometry x="144.6" y="322" width="90" height="20" as="geometry" />
        </mxCell>
        <mxCell id="umgGRX6cQPKKGzuGE6wV-42" style="edgeStyle=orthogonalEdgeStyle;rounded=0;orthogonalLoop=1;jettySize=auto;html=1;exitX=0.5;exitY=1;exitDx=0;exitDy=0;entryX=0.688;entryY=-0.15;entryDx=0;entryDy=0;entryPerimeter=0;" parent="1" source="umgGRX6cQPKKGzuGE6wV-38" target="umgGRX6cQPKKGzuGE6wV-15" edge="1">
          <mxGeometry relative="1" as="geometry" />
        </mxCell>
        <mxCell id="A9Hz1d1B_xaYPRxxfRa6-12" style="edgeStyle=orthogonalEdgeStyle;rounded=0;orthogonalLoop=1;jettySize=auto;html=1;exitX=0.5;exitY=0;exitDx=0;exitDy=0;" edge="1" parent="1" source="umgGRX6cQPKKGzuGE6wV-38">
          <mxGeometry relative="1" as="geometry">
            <mxPoint x="340" y="270" as="targetPoint" />
          </mxGeometry>
        </mxCell>
        <mxCell id="umgGRX6cQPKKGzuGE6wV-38" value="" style="rounded=0;whiteSpace=wrap;html=1;" parent="1" vertex="1">
          <mxGeometry x="383.59999999999997" y="322" width="210" height="140" as="geometry" />
        </mxCell>
        <mxCell id="umgGRX6cQPKKGzuGE6wV-39" value="10.3.243.48" style="aspect=fixed;perimeter=ellipsePerimeter;html=1;align=center;shadow=0;dashed=0;spacingTop=3;image;image=img/lib/active_directory/web_server.svg;" parent="1" vertex="1">
          <mxGeometry x="408.4" y="362" width="48" height="60" as="geometry" />
        </mxCell>
        <mxCell id="umgGRX6cQPKKGzuGE6wV-40" value="10.3.243.49" style="aspect=fixed;perimeter=ellipsePerimeter;html=1;align=center;shadow=0;dashed=0;spacingTop=3;image;image=img/lib/active_directory/web_server.svg;" parent="1" vertex="1">
          <mxGeometry x="525" y="362" width="48" height="60" as="geometry" />
        </mxCell>
        <mxCell id="umgGRX6cQPKKGzuGE6wV-41" value="&lt;span style=&quot;background-color: rgb(255 , 255 , 255)&quot;&gt;Efast web DR&lt;/span&gt;" style="text;html=1;resizable=0;autosize=1;align=center;verticalAlign=middle;points=[];fillColor=none;strokeColor=none;rounded=0;" parent="1" vertex="1">
          <mxGeometry x="489.99999999999994" y="322" width="90" height="20" as="geometry" />
        </mxCell>
        <mxCell id="A9Hz1d1B_xaYPRxxfRa6-3" value="" style="rounded=0;whiteSpace=wrap;html=1;" vertex="1" parent="1">
          <mxGeometry x="219" y="90" width="210" height="140" as="geometry" />
        </mxCell>
        <mxCell id="A9Hz1d1B_xaYPRxxfRa6-4" value="10.3.244.52" style="aspect=fixed;perimeter=ellipsePerimeter;html=1;align=center;shadow=0;dashed=0;spacingTop=3;image;image=img/lib/active_directory/database_server.svg;" vertex="1" parent="1">
          <mxGeometry x="249.4" y="120" width="57.4" height="70" as="geometry" />
        </mxCell>
        <mxCell id="A9Hz1d1B_xaYPRxxfRa6-5" value="10.3.244.53" style="aspect=fixed;perimeter=ellipsePerimeter;html=1;align=center;shadow=0;dashed=0;spacingTop=3;image;image=img/lib/active_directory/database_server.svg;" vertex="1" parent="1">
          <mxGeometry x="346.6" y="120" width="57.4" height="70" as="geometry" />
        </mxCell>
        <mxCell id="A9Hz1d1B_xaYPRxxfRa6-8" value="&lt;span style=&quot;background-color: rgb(255 , 255 , 255)&quot;&gt;Ip scan:&lt;/span&gt;10.3.244.55&lt;br&gt;pri-ibdb.hq.icbv.com:1521" style="text;html=1;resizable=0;autosize=1;align=center;verticalAlign=middle;points=[];fillColor=none;strokeColor=none;rounded=0;" vertex="1" parent="1">
          <mxGeometry x="254" y="230" width="150" height="30" as="geometry" />
        </mxCell>
        <mxCell id="A9Hz1d1B_xaYPRxxfRa6-15" value="&lt;span style=&quot;background-color: rgb(255 , 255 , 255)&quot;&gt;Oracle Rac&lt;/span&gt;" style="text;html=1;resizable=0;autosize=1;align=center;verticalAlign=middle;points=[];fillColor=none;strokeColor=none;rounded=0;" vertex="1" parent="1">
          <mxGeometry x="354" y="90" width="80" height="20" as="geometry" />
        </mxCell>
      </root>
    </mxGraphModel>
  </diagram>
</mxfile>
